<svg width="25" height="25" viewBox="0 0 25 25" fill="none" xmlns="http://www.w3.org/2000/svg">
<path d="M11.8333 17.5H7.83331C6.44998 17.5 5.27081 17.0125 4.29581 16.0375C3.32081 15.0625 2.83331 13.8833 2.83331 12.5C2.83331 11.1167 3.32081 9.9375 4.29581 8.9625C5.27081 7.9875 6.44998 7.5 7.83331 7.5H11.8333V9.5H7.83331C6.99998 9.5 6.29165 9.79167 5.70831 10.375C5.12498 10.9583 4.83331 11.6667 4.83331 12.5C4.83331 13.3333 5.12498 14.0417 5.70831 14.625C6.29165 15.2083 6.99998 15.5 7.83331 15.5H11.8333V17.5ZM8.83331 13.5V11.5H16.8333V13.5H8.83331ZM13.8333 17.5V15.5H17.8333C18.6666 15.5 19.375 15.2083 19.9583 14.625C20.5416 14.0417 20.8333 13.3333 20.8333 12.5C20.8333 11.6667 20.5416 10.9583 19.9583 10.375C19.375 9.79167 18.6666 9.5 17.8333 9.5H13.8333V7.5H17.8333C19.2166 7.5 20.3958 7.9875 21.3708 8.9625C22.3458 9.9375 22.8333 11.1167 22.8333 12.5C22.8333 13.8833 22.3458 15.0625 21.3708 16.0375C20.3958 17.0125 19.2166 17.5 17.8333 17.5H13.8333Z" fill="#0167E6"/>
</svg>
