<svg width="212" height="77" viewBox="0 0 212 77" fill="none" xmlns="http://www.w3.org/2000/svg">
<rect width="212" height="77" fill="black"/>
<path d="M30.2881 42.8408V36.8105H45.8643V51.0684C44.3506 52.5332 42.1533 53.8271 39.2725 54.9502C36.4079 56.057 33.5026 56.6104 30.5566 56.6104C26.8132 56.6104 23.5498 55.8291 20.7666 54.2666C17.9834 52.6878 15.8919 50.4417 14.4922 47.5283C13.0924 44.5986 12.3926 41.4167 12.3926 37.9824C12.3926 34.2552 13.1738 30.943 14.7363 28.0459C16.2988 25.1488 18.5856 22.9271 21.5967 21.3809C23.8916 20.1927 26.748 19.5986 30.166 19.5986C34.6094 19.5986 38.0762 20.5345 40.5664 22.4062C43.0729 24.2617 44.6842 26.8333 45.4004 30.1211L38.2227 31.4639C37.7181 29.7061 36.766 28.3226 35.3662 27.3135C33.9827 26.2881 32.2493 25.7754 30.166 25.7754C27.0085 25.7754 24.4938 26.7764 22.6221 28.7783C20.7666 30.7803 19.8389 33.7507 19.8389 37.6895C19.8389 41.9375 20.7829 45.1276 22.6709 47.2598C24.5589 49.3757 27.0329 50.4336 30.0928 50.4336C31.6064 50.4336 33.1201 50.1406 34.6338 49.5547C36.1637 48.9525 37.474 48.2282 38.5645 47.3818V42.8408H30.2881ZM59.0723 56H52.2119V30.0723H58.584V33.7588C59.6745 32.0173 60.651 30.8698 61.5137 30.3164C62.3926 29.763 63.3854 29.4863 64.4922 29.4863C66.0547 29.4863 67.5602 29.9176 69.0088 30.7803L66.8848 36.7617C65.7292 36.013 64.6549 35.6387 63.6621 35.6387C62.7018 35.6387 61.888 35.9072 61.2207 36.4443C60.5534 36.9652 60.0244 37.9173 59.6338 39.3008C59.2594 40.6842 59.0723 43.5814 59.0723 47.9922V56ZM71.9873 26.5566V20.209H78.8477V26.5566H71.9873ZM71.9873 56V30.0723H78.8477V56H71.9873ZM109.487 56H102.627V42.7676C102.627 39.9681 102.48 38.1615 102.188 37.3477C101.895 36.5176 101.414 35.8747 100.747 35.4189C100.096 34.9632 99.3066 34.7354 98.3789 34.7354C97.1908 34.7354 96.1247 35.0609 95.1807 35.7119C94.2367 36.363 93.5856 37.2256 93.2275 38.2998C92.8857 39.374 92.7148 41.3597 92.7148 44.2568V56H85.8545V30.0723H92.2266V33.8809C94.4889 30.9512 97.3372 29.4863 100.771 29.4863C102.285 29.4863 103.669 29.763 104.922 30.3164C106.175 30.8535 107.119 31.5452 107.754 32.3916C108.405 33.238 108.853 34.1982 109.097 35.2725C109.357 36.3467 109.487 37.8848 109.487 39.8867V56ZM140.249 56H133.877V52.1914C132.819 53.6725 131.566 54.7793 130.117 55.5117C128.685 56.2279 127.236 56.5859 125.771 56.5859C122.793 56.5859 120.238 55.3896 118.105 52.9971C115.99 50.5882 114.932 47.2354 114.932 42.9385C114.932 38.5439 115.965 35.2074 118.032 32.9287C120.099 30.6338 122.712 29.4863 125.869 29.4863C128.766 29.4863 131.273 30.6908 133.389 33.0996V20.209H140.249V56ZM121.938 42.4746C121.938 45.2415 122.321 47.2435 123.086 48.4805C124.193 50.2708 125.739 51.166 127.725 51.166C129.303 51.166 130.646 50.4987 131.753 49.1641C132.86 47.8132 133.413 45.8031 133.413 43.1338C133.413 40.1553 132.876 38.015 131.802 36.7129C130.728 35.3945 129.352 34.7354 127.676 34.7354C126.048 34.7354 124.681 35.3864 123.574 36.6885C122.484 37.9743 121.938 39.903 121.938 42.4746Z" fill="white"/>
<rect x="147" y="10" width="55" height="57" rx="6" fill="#F7981D"/>
<path d="M155.418 56V20.209H162.645V56H155.418ZM193.089 56H186.229V42.7676C186.229 39.9681 186.082 38.1615 185.789 37.3477C185.496 36.5176 185.016 35.8747 184.349 35.4189C183.698 34.9632 182.908 34.7354 181.98 34.7354C180.792 34.7354 179.726 35.0609 178.782 35.7119C177.838 36.363 177.187 37.2256 176.829 38.2998C176.487 39.374 176.316 41.3597 176.316 44.2568V56H169.456V30.0723H175.828V33.8809C178.09 30.9512 180.939 29.4863 184.373 29.4863C185.887 29.4863 187.27 29.763 188.523 30.3164C189.777 30.8535 190.721 31.5452 191.355 32.3916C192.007 33.238 192.454 34.1982 192.698 35.2725C192.959 36.3467 193.089 37.8848 193.089 39.8867V56Z" fill="black"/>
</svg>
